<svg xmlns="http://www.w3.org/2000/svg" width="900" height="600" viewBox="0 0 900 600" fill="none">
  <defs>
    <linearGradient id="hero" x1="67" y1="78" x2="829" y2="555" gradientUnits="userSpaceOnUse">
      <stop stop-color="#0c493a"/>
      <stop offset="1" stop-color="#147354"/>
    </linearGradient>
    <linearGradient id="page" x1="0" y1="0" x2="900" y2="600" gradientUnits="userSpaceOnUse">
      <stop stop-color="#fff"/>
      <stop offset="1" stop-color="#f2f5ef"/>
    </linearGradient>
  </defs>
  <path fill="url(#page)" d="M0 0h900v600H0z"/>
  <path fill="#fff" d="M0 0h900v71H0z"/>
  <circle cx="57" cy="36" r="19" fill="#eaf3ec"/>
  <path d="M57 22 45 28v9c0 8 5 13 12 16 7-3 12-8 12-16v-9l-12-6Z" fill="#147354"/>
  <path d="m51 36 4 4 8-9" stroke="#fff" stroke-linecap="round" stroke-linejoin="round" stroke-width="2"/>
  <text x="89" y="34" fill="#17251f" font-family="Arial,sans-serif" font-size="18" font-weight="700">Barangay Limon Norte</text>
  <text x="89" y="52" fill="#6d7972" font-family="Arial,sans-serif" font-size="11">Online Registration &amp; Feedback System</text>
  <rect x="754" y="18" width="103" height="36" rx="9" fill="#147354"/>
  <text x="781" y="41" fill="#fff" font-family="Arial,sans-serif" font-size="12" font-weight="700">Register</text>
  <rect x="20" y="91" width="860" height="365" rx="26" fill="url(#hero)"/>
  <circle cx="830" cy="126" r="188" stroke="#fff" stroke-opacity=".08"/>
  <circle cx="830" cy="456" r="188" stroke="#fff" stroke-opacity=".08"/>
  <circle cx="88" cy="155" r="4" fill="#e9cf77"/>
  <text x="104" y="160" fill="#dce9d7" font-family="Arial,sans-serif" font-size="11" font-weight="700" letter-spacing="1.3">BARANGAY LIMON NORTE  /  LOOC, ROMBLON</text>
  <text x="83" y="231" fill="#fff" font-family="Arial,sans-serif" font-size="42" font-weight="700">Closer service.</text>
  <text x="83" y="281" fill="#d9e7a9" font-family="Arial,sans-serif" font-size="42" font-weight="700">Simpler living.</text>
  <text x="84" y="322" fill="#d1ded9" font-family="Arial,sans-serif" font-size="16">Register, track requests, and stay connected</text>
  <text x="84" y="347" fill="#d1ded9" font-family="Arial,sans-serif" font-size="16">with your barangay in one secure portal.</text>
  <rect x="84" y="377" width="137" height="42" rx="9" fill="#edcf79"/>
  <text x="104" y="403" fill="#17382e" font-family="Arial,sans-serif" font-size="13" font-weight="700">Get started  →</text>
  <rect x="587" y="145" width="240" height="260" rx="20" fill="#f5f7f2"/>
  <rect x="611" y="169" width="37" height="37" rx="11" fill="#147354"/>
  <text x="619" y="193" fill="#fff" font-family="Arial,sans-serif" font-size="13" font-weight="700">BLN</text>
  <rect x="718" y="175" width="85" height="24" rx="12" fill="#fff" stroke="#e5e9e3"/>
  <circle cx="732" cy="187" r="3" fill="#40a77b"/>
  <text x="741" y="191" fill="#59665d" font-family="Arial,sans-serif" font-size="9">Resident portal</text>
  <text x="611" y="238" fill="#728078" font-family="Arial,sans-serif" font-size="10" font-weight="700" letter-spacing="1.3">YOUR BARANGAY, ONLINE</text>
  <text x="611" y="273" fill="#17251f" font-family="Arial,sans-serif" font-size="20" font-weight="700">Services made for</text>
  <text x="611" y="299" fill="#17251f" font-family="Arial,sans-serif" font-size="20" font-weight="700">your community.</text>
  <text x="611" y="333" fill="#6d7972" font-family="Arial,sans-serif" font-size="12">Access records, follow the progress</text>
  <text x="611" y="352" fill="#6d7972" font-family="Arial,sans-serif" font-size="12">of requests, and connect with staff.</text>
  <path d="M611 372h192" stroke="#e0e5df"/>
  <text x="611" y="390" fill="#5e6b63" font-family="Arial,sans-serif" font-size="10" font-weight="700">Barangay Limon Norte</text>
  <text x="84" y="500" fill="#167254" font-family="Arial,sans-serif" font-size="11" font-weight="700" letter-spacing="1.4">THE RESIDENT PORTAL</text>
  <text x="84" y="535" fill="#19251f" font-family="Arial,sans-serif" font-size="25" font-weight="700">Everything you need, in one place.</text>
  <rect x="84" y="554" width="227" height="30" rx="10" fill="#e6f1e8"/>
  <rect x="326" y="554" width="227" height="30" rx="10" fill="#f5f0dc"/>
  <rect x="568" y="554" width="227" height="30" rx="10" fill="#e8eef0"/>
</svg>
